<svg width="40" height="42" viewBox="0 0 40 42" fill="none" xmlns="http://www.w3.org/2000/svg">
<path d="M15.2899 7.90041C15.1806 7.71727 15.0447 7.56219 14.8822 7.43518C14.7198 7.30669 14.5374 7.20921 14.335 7.14275C14.1342 7.07629 13.9193 7.04306 13.6904 7.04306C13.3034 7.04306 12.9593 7.13758 12.658 7.32663C12.3567 7.51567 12.1197 7.78447 11.9469 8.13303C11.7741 8.48158 11.6877 8.89512 11.6877 9.37364C11.6877 9.85217 11.7741 10.2657 11.9469 10.6143C12.1197 10.9628 12.3567 11.2316 12.658 11.4207C12.9593 11.6097 13.3034 11.7042 13.6904 11.7042C13.9193 11.7042 14.1342 11.671 14.335 11.6045C14.5374 11.5381 14.7198 11.4413 14.8822 11.3143C15.0447 11.1858 15.1806 11.03 15.2899 10.8469M18.3109 7.10509V11.6422M6.99115 11.7645C8.00046 15.2958 11.2521 17.8807 15.1075 17.8807C18.9629 17.8807 22.2145 15.2958 23.2238 11.7645M6.99115 11.7645C6.78011 11.0262 6.66711 10.2465 6.66711 9.44037C6.66711 4.77888 10.446 1 15.1075 1C19.769 1 23.5478 4.77888 23.5478 9.44037C23.5478 10.2465 23.4348 11.0262 23.2238 11.7645M6.99115 11.7645H6.19922C5.64693 11.7645 5.19922 12.2122 5.19922 12.7645V40C5.19922 40.5523 5.64693 41 6.19922 41H15.3334M23.2238 11.7645H26.1183M26.1183 11.7645H29.0127H33.8017C34.3539 11.7645 34.8017 12.2122 34.8017 12.7645V40C34.8017 40.5523 34.3539 41 33.8017 41H15.3334M26.1183 11.7645V31.3976M15.3334 41V21.6728" stroke="#3E7EFF" stroke-width="1.5" stroke-linecap="round" stroke-linejoin="round"/>
</svg>
