<svg width="40" height="42" viewBox="0 0 40 42" fill="none" xmlns="http://www.w3.org/2000/svg">
<path d="M11.9798 13.3529L13.6832 1.42929C13.7184 1.18297 13.9294 1 14.1782 1H16.5513C16.7979 1 17.0077 1.17981 17.0454 1.42353L18.8916 13.3529M21.9799 13.3529L23.6832 1.42929C23.7184 1.18296 23.9294 1 24.1782 1H26.5513C26.7979 1 27.0077 1.17981 27.0454 1.42353L28.8916 13.3529M20.5766 33.1684L23.5 27.3266C20.7663 27.3266 19.2337 27.3266 16.5 27.3266L19.4234 21.5M33.5295 30.1176V15.3529C33.5295 14.2484 32.6341 13.3529 31.5295 13.3529H8.4707C7.36613 13.3529 6.4707 14.2484 6.4707 15.3529V39C6.4707 40.1046 7.36613 41 8.4707 41H31.5295C32.6341 41 33.5295 40.1046 33.5295 39V35.5588V30.1176Z" stroke="#FFCC00" stroke-width="1.5" stroke-linecap="round" stroke-linejoin="round"/>
</svg>
