<svg width="24" height="24" viewBox="0 0 24 24" fill="none" xmlns="http://www.w3.org/2000/svg">
<path d="M7.99776 3.99707H5.99693C4.8919 3.99707 3.99609 4.89287 3.99609 5.9979V19.0033C3.99609 20.1084 4.8919 21.0042 5.99693 21.0042H11.9994" stroke="#2D4778" stroke-linecap="round" stroke-linejoin="round"/>
<rect x="7.99805" y="1.99609" width="8.00333" height="4.00167" rx="1" stroke="#2D4778" stroke-linecap="round" stroke-linejoin="round"/>
<path d="M16 3.99707H18.0008C19.1059 3.99707 20.0017 4.89287 20.0017 5.9979V11" stroke="#2D4778" stroke-linecap="round" stroke-linejoin="round"/>
<path d="M16.0001 9.99923H10.998" stroke="#2D4778" stroke-linecap="round" stroke-linejoin="round"/>
<path d="M12.9989 14.0012H10.998" stroke="#2D4778" stroke-linecap="round" stroke-linejoin="round"/>
<path d="M7.99826 9.87418C7.92919 9.87418 7.8732 9.93017 7.8732 9.99923C7.8732 10.0683 7.92919 10.1243 7.99826 10.1243C8.06732 10.1243 8.12331 10.0683 8.12331 9.99923C8.12331 9.93017 8.06732 9.87418 7.99826 9.87418" stroke="#2D4778" stroke-linecap="round" stroke-linejoin="round"/>
<path d="M7.99826 13.8761C7.92919 13.8761 7.8732 13.9321 7.8732 14.0012C7.8732 14.0702 7.92919 14.1262 7.99826 14.1262C8.06732 14.1262 8.12331 14.0702 8.12331 14.0012C8.12331 13.9321 8.06732 13.8761 7.99826 13.8761" stroke="#2D4778" stroke-linecap="round" stroke-linejoin="round"/>
<path fill-rule="evenodd" clip-rule="evenodd" d="M18.0017 14.001C18.0017 16.211 16.2101 18.0026 14 18.0026C16.2101 18.0026 18.0017 19.7943 18.0017 22.0043C18.0017 19.7943 19.7933 18.0026 22.0033 18.0026C19.7933 18.0026 18.0017 16.211 18.0017 14.001Z" stroke="#2D4778" stroke-linecap="round" stroke-linejoin="round"/>
</svg>
