<svg width="24" height="24" viewBox="0 0 24 24" fill="none" xmlns="http://www.w3.org/2000/svg">
<path d="M3 9H21" stroke="#2D4778" stroke-linecap="round" stroke-linejoin="round"/>
<path d="M11 5.995L10.995 6L11 6.005L11.005 6L11 5.995" stroke="#2D4778" stroke-linecap="round" stroke-linejoin="round"/>
<path d="M8.5 5.995L8.495 6L8.5 6.005L8.505 6L8.5 5.995" stroke="#2D4778" stroke-linecap="round" stroke-linejoin="round"/>
<path d="M6 5.995L5.995 6L6 6.005L6.005 6L6 5.995" stroke="#2D4778" stroke-linecap="round" stroke-linejoin="round"/>
<path d="M11 5.995L10.995 6L11 6.005L11.005 6L11 5.995" stroke="#2D4778" stroke-linecap="round" stroke-linejoin="round"/>
<path d="M8.5 5.995L8.495 6L8.5 6.005L8.505 6L8.5 5.995" stroke="#2D4778" stroke-linecap="round" stroke-linejoin="round"/>
<path d="M6 5.995L5.995 6L6 6.005L6.005 6L6 5.995" stroke="#2D4778" stroke-linecap="round" stroke-linejoin="round"/>
<path d="M17.5 21H18C19.6569 21 21 19.6569 21 18V6C21 4.34315 19.6569 3 18 3H6C4.34315 3 3 4.34315 3 6V18C3 19.6569 4.34315 21 6 21H6.5" stroke="#2D4778" stroke-linecap="round" stroke-linejoin="round"/>
<path d="M12 13.5L10 15.5" stroke="#2D4778" stroke-linecap="round" stroke-linejoin="round"/>
<path d="M14 15.5L12 13.5" stroke="#2D4778" stroke-linecap="round" stroke-linejoin="round"/>
<path d="M12 18V13.5" stroke="#2D4778" stroke-linecap="round" stroke-linejoin="round"/>
<path d="M14 21H10" stroke="#2D4778" stroke-linecap="round" stroke-linejoin="round"/>
</svg>
