<svg width="40" height="42" viewBox="0 0 40 42" fill="none" xmlns="http://www.w3.org/2000/svg">
<path d="M10 21V11M10 21V31M10 21H12.5M10 11V3C10 1.89543 10.8954 1 12 1H14H15M10 11H15M10 31V39C10 40.1046 10.8954 41 12 41H14H15M10 31H15M30 31V39C30 40.1046 29.1046 41 28 41H26H25M30 31V21M30 31H25M30 21V11M30 21H27.5M30 11V3C30 1.89543 29.1046 1 28 1H26H25M30 11H25M20 1V11M20 1H15M20 1H25M20 41V31M20 41H15M20 41H25M20 11H15M20 11H25M20 31H15M20 31H25M15 31V41M25 31V41M15 11V1M25 11V1M18 17.166V25.5048V20.8794M18 17.166H23M18 17.166V20.8794M18 20.8794H22.6254" stroke="#3E7EFF" stroke-width="1.5" stroke-linecap="round"/>
</svg>
