<?xml version="1.0" encoding="UTF-8"?>
<svg id="Logo" xmlns="http://www.w3.org/2000/svg" viewBox="0 0 1477.57 1100">
  <defs>
    <style>
      .cls-1 {
        fill: #2d4778;
      }
    </style>
  </defs>
  <path class="cls-1" d="m1174.37,472.65h-98.13c-15.57,0-28.2-12.63-28.2-28.2v-20.22c0-21.8-3.08-43.52-9.33-64.41-15.41-51.46-40.15-84.82-68.03-84.82s-52.62,33.36-68.03,84.82c-6.26,20.89-9.33,42.61-9.33,64.41v20.22c0,15.58-12.62,28.2-28.2,28.2,0,0-98.13,0-98.13,0,0,0-2.3-.13-3.3-.22-13.95-1.7-24.76-13.57-24.76-27.99v-20.22c0-21.8-3.08-43.52-9.33-64.41-15.41-51.46-40.15-84.82-68.03-84.82s-52.62,33.36-68.03,84.82c-6.26,20.89-9.33,42.61-9.33,64.41v20.22c0,15.58-12.62,28.2-28.2,28.2h-98.13c-15.57,0-28.2,12.63-28.2,28.2v49.15h-154.66v49.15c0,15.58,12.63,28.2,28.2,28.2h98.13c15.57,0,28.2,12.63,28.2,28.2v20.22c0,21.8,3.08,43.52,9.33,64.41,15.41,51.46,40.15,84.82,68.03,84.82s52.62-33.36,68.03-84.82c6.26-20.89,9.33-42.61,9.33-64.41v-20.22c0-15.58,12.62-28.2,28.2-28.2h97.99c15.57,0,28.2,12.63,28.2,28.2v20.22c0,21.8,3.08,43.52,9.33,64.41,15.41,51.46,40.15,84.82,68.03,84.82s52.62-33.36,68.03-84.82c6.26-20.89,9.33-42.61,9.33-64.41v-20.22c0-15.58,12.62-28.2,28.2-28.2h98.13c15.57,0,28.2-12.63,28.2-28.2v-49.15h154.66v-49.15c0-15.58-12.63-28.2-28.2-28.2Zm-590.25,132.73c0,42.65-34.58,77.23-77.23,77.23s-77.23-34.58-77.23-77.23v-55.37h154.46v55.37Zm154.66-55.37h-154.46v-55.37c0-42.65,34.58-77.23,77.23-77.23s74.54,31.98,77.06,72.35c0,4.56.17,9.04.17,11.1v49.15Zm154.46,55.37c0,42.65-34.58,77.23-77.23,77.23s-77.23-34.58-77.23-77.23c0-.5,0-6.22,0-6.22h0v-49.15h154.46v55.37Zm154.66-55.37h-154.46v-55.37c0-42.65,34.58-77.23,77.23-77.23s77.23,34.58,77.23,77.23v55.37Z"/>
</svg>