<?xml version="1.0" encoding="UTF-8"?>
<svg version="1.1" xmlns="http://www.w3.org/2000/svg" width="512" height="512">
<path d="M0 0 C3.47033297 1.87976369 4.63977996 3.10617692 6.10864294 6.75090373 C7.03072466 10.11199482 7.25445044 12.88176248 7.26171303 16.36054039 C7.26917852 17.62650909 7.27664401 18.89247779 7.28433573 20.19680917 C7.28255911 21.59404611 7.28059824 22.99128283 7.2784729 24.38851929 C7.28347722 25.87862883 7.28935342 27.36873567 7.29602563 28.85883868 C7.31182319 32.94986308 7.31525618 37.04081881 7.31667423 41.13187003 C7.3203687 45.54491363 7.33552442 49.95791957 7.34928894 54.37094116 C7.37156411 62.01559428 7.38657586 69.66023401 7.39665604 77.30491257 C7.41124078 88.35783361 7.43677705 99.41070799 7.46498732 110.46360166 C7.51045901 128.39613225 7.54707227 146.32866955 7.578125 164.26123047 C7.60830899 181.68116434 7.64265858 199.10108178 7.68261719 216.52099609 C7.68630951 218.13160919 7.68630951 218.13160919 7.69007643 219.77475993 C7.702451 225.16140194 7.71490754 230.54804375 7.72740483 235.93468547 C7.83097828 280.62310074 7.92017968 325.31153642 8 370 C8.72218719 369.27337158 9.44437439 368.54674316 10.18844604 367.7980957 C16.9814697 360.96460045 23.77971377 354.13633773 30.58315849 347.31321716 C34.08104896 343.80487127 37.57704734 340.29468165 41.06884766 336.78027344 C44.43611032 333.39134507 47.80817715 330.0072675 51.18368912 326.6265564 C52.47328601 325.33325244 53.76111585 324.0381841 55.04717636 322.74136353 C56.84310556 320.93100281 58.64510816 319.12691039 60.44873047 317.32421875 C60.98388275 316.78187592 61.51903503 316.23953308 62.07040405 315.68075562 C65.77189568 312 65.77189568 312 68 312 C68 311.34 68 310.68 68 310 C68.66 310 69.32 310 70 310 C70 309.34 70 308.68 70 308 C70.66 308 71.32 308 72 308 C72 307.34 72 306.68 72 306 C73.57421875 304.484375 73.57421875 304.484375 75.6875 302.75 C78.35349133 300.49924272 80.71010091 298.29950455 82.875 295.5625 C83.926875 294.2940625 83.926875 294.2940625 85 293 C85.66 293 86.32 293 87 293 C87 292.34 87 291.68 87 291 C87.66 291 88.32 291 89 291 C89 290.34 89 289.68 89 289 C89.66 289 90.32 289 91 289 C91 288.34 91 287.68 91 287 C91.66 287 92.32 287 93 287 C93 286.34 93 285.68 93 285 C94.43359375 283.60302734 94.43359375 283.60302734 96.4375 281.9609375 C99.62308298 279.2562766 102.56510082 276.44955124 105.4375 273.4140625 C106.18773437 272.62902344 106.93796875 271.84398437 107.7109375 271.03515625 C109.24872253 269.41602081 110.77466353 267.78556085 112.2890625 266.14453125 C118.62274002 259.58231898 118.62274002 259.58231898 123.35546875 258.890625 C127.49523199 259.01486227 129.60969391 259.63467017 133 262 C135.83226052 265.30430394 136.73265114 268.5464739 136.52454376 272.92707539 C134.39030439 281.36129507 122.76671755 289.3966436 116.65820312 295.51879883 C115.41713149 296.76614671 114.17624609 298.01367991 112.93553162 299.26138306 C108.88765452 303.33014279 104.83458429 307.39370925 100.78125 311.45703125 C99.38123883 312.86109414 97.98126036 314.26518965 96.58131409 315.66931725 C90.00953901 322.26009928 83.43538691 328.84849881 76.85828161 335.43396169 C69.2782079 343.02382917 61.70650692 350.6219243 54.14171839 358.22702581 C48.28187756 364.11701691 42.41439052 369.99932012 36.54111242 375.87591189 C33.03781832 379.38155511 29.53790016 382.89041843 26.04603577 386.40744972 C22.76497568 389.71178013 19.47453355 393.00646985 16.17668343 396.29404068 C14.96991344 397.50031516 13.76654709 398.710006 12.56690788 399.92337227 C10.92576283 401.58223805 9.27266704 403.22822452 7.61608887 404.87165833 C6.69509148 405.79504407 5.77409409 406.71842981 4.82518768 407.66979694 C1.57486506 410.35064953 -1.04047437 411.61016863 -5 413 C-7.22265625 412.59375 -7.22265625 412.59375 -9.0625 411.5 C-10.06796875 410.90445313 -10.06796875 410.90445313 -11.09375 410.296875 C-15.40323169 407.36501451 -18.77514326 404.33025254 -22.125 400.375 C-25.23290738 396.72598374 -28.59142207 393.47696744 -32.125 390.25 C-32.62789551 389.79028809 -33.13079102 389.33057617 -33.64892578 388.85693359 C-35.92868064 386.79622724 -38.2346699 384.81578932 -40.65234375 382.91796875 C-42.87644889 381.10093776 -44.61367357 379.27121066 -46.4375 377.0625 C-49.39569592 373.59736812 -52.45531689 370.85115816 -56 368 C-57.66666667 366.33333333 -59.33333333 364.66666667 -61 363 C-61.94875 362.236875 -62.8975 361.47375 -63.875 360.6875 C-66.34723422 358.67683381 -68.37441461 356.49020227 -70.4375 354.0625 C-73.1902829 350.82357443 -76.08899863 348.13266555 -79.37109375 345.4453125 C-81.0140267 343.98755424 -82.32788075 342.47135281 -83.6875 340.75 C-85.90217104 338.11633714 -87.04227157 337.43115892 -90 336 C-91.33895632 334.33784732 -92.67130142 332.67036393 -94 331 C-95.08604485 330.04156542 -96.1919968 329.10541222 -97.3125 328.1875 C-100.70285266 325.37669481 -103.45584982 322.24061167 -106.30078125 318.890625 C-108.65531546 316.2708674 -111.24525689 314.19127293 -114 312 C-115.02019573 311.0206121 -116.02149805 310.02104551 -117 309 C-118.11706549 307.88293451 -119.23431891 306.76605656 -120.35229492 305.64990234 C-122.37258266 303.62692049 -124.38517735 301.59638185 -126.3984375 299.56640625 C-128.05722636 297.89837255 -129.71608234 296.2304056 -131.375 294.5625 C-132.6125 293.31243164 -132.6125 293.31243164 -133.875 292.03710938 C-137.96869799 287.92716655 -142.05016716 283.95272528 -146.60571289 280.35473633 C-149.29022385 277.74637504 -150.44631783 274.65020098 -151 271 C-150.96146263 267.97206369 -150.48867471 265.64913767 -149 263 C-145.98952994 260.19443104 -142.95424326 259.15579482 -138.9375 258.5 C-132.84119606 259.53766876 -129.05088679 263.79657166 -124.92797852 268.07250977 C-123.15807836 269.84196168 -121.33968049 271.45918477 -119.4296875 273.07421875 C-113.21959985 278.46673784 -107.54778432 284.40848851 -101.77734375 290.26171875 C-97.94513395 294.12739763 -94.13588913 297.95793924 -90 301.5 C-83.90859736 306.71680287 -78.40346598 312.5548774 -72.77734375 318.26171875 C-68.94513395 322.12739763 -65.13588913 325.95793924 -61 329.5 C-54.90859736 334.71680287 -49.40346598 340.5548774 -43.77734375 346.26171875 C-39.37712816 350.70036417 -34.95092173 354.99420298 -30.1907959 359.04382324 C-27.61370508 361.34492539 -25.18683292 363.76590472 -22.75195312 366.21679688 C-21.85963989 367.11362183 -20.96732666 368.01044678 -20.04797363 368.93444824 C-19.37214233 369.61608032 -18.69631104 370.2977124 -18 371 C-17.99978263 370.23206537 -17.99956526 369.46413073 -17.99934131 368.67292535 C-17.98583138 323.17925176 -17.94637935 277.68566426 -17.87314438 232.19204559 C-17.86437741 226.73203459 -17.85582765 221.27202327 -17.84741211 215.81201172 C-17.84573305 214.7250018 -17.84405398 213.63799189 -17.84232404 212.51804228 C-17.81563955 194.90727281 -17.80655792 177.29653588 -17.80395857 159.68574826 C-17.8009013 141.62129545 -17.77898083 123.5569369 -17.73947543 105.49252665 C-17.71568664 94.34188183 -17.70668788 83.19142505 -17.71648689 72.04075833 C-17.72179435 64.39883468 -17.7088127 56.75707984 -17.6813371 49.11520426 C-17.66601816 44.70330829 -17.65887047 40.29179001 -17.67340279 35.87988281 C-17.68652647 31.84167416 -17.67671575 27.80419841 -17.64856227 23.76607259 C-17.64243753 22.30434403 -17.6447732 20.84255075 -17.65637074 19.38085537 C-17.74625702 7.09166278 -17.74625702 7.09166278 -14.58504772 3.15372658 C-9.96802295 -0.69293702 -5.85833749 -0.65502671 0 0 Z " fill="#000000" transform="translate(261,6)"/>
<path d="M0 0 C2.8125 1.0625 2.8125 1.0625 5 3 C17.61157104 32.4269991 8 66.98437881 8 99 C161.78 99 315.56 99 474 99 C474 69.63 474 40.26 474 10 C477 3 477 3 479.1875 1.0625 C482.87105796 -0.32906634 486.15701212 -0.82564193 490 0 C493.01784991 1.75607646 495.41468217 3.82936435 497 7 C497.10030821 8.4456631 497.13938592 9.89580694 497.14717102 11.34492493 C497.15790398 12.71392441 497.15790398 12.71392441 497.16885376 14.11058044 C497.17288712 15.61685753 497.17288712 15.61685753 497.17700195 17.15356445 C497.18685875 18.73666412 497.18685875 18.73666412 497.19691467 20.35174561 C497.21667765 23.85559148 497.22831646 27.35939445 497.23828125 30.86328125 C497.24235678 32.05775564 497.2464323 33.25223003 497.25063133 34.48290062 C497.27150405 40.80394697 497.28580105 47.12497154 497.29516602 53.44604492 C497.30623791 59.98333716 497.34064379 66.52028971 497.38033772 73.05746174 C497.40645 78.07686508 497.41485304 83.09618679 497.41844749 88.11565208 C497.42332673 90.52583297 497.43497848 92.93600988 497.45348549 95.34612465 C497.47776344 98.71710968 497.47693237 102.08720676 497.4699707 105.45825195 C497.48278076 106.45636398 497.49559082 107.45447601 497.50878906 108.48283386 C497.47585728 112.85136998 497.42469002 115.30948781 495.09562683 119.09635925 C491.27066607 122.57090493 487.89035138 122.14137782 482.95639229 122.12863445 C481.68844807 122.13126401 481.68844807 122.13126401 480.39488882 122.13394669 C477.53140122 122.13863906 474.66796369 122.13613292 471.80447388 122.13371277 C469.74319793 122.13557912 467.68192234 122.13787911 465.62064731 122.14057809 C459.93209755 122.14672433 454.24356241 122.1465592 448.55501008 122.14538372 C442.42948315 122.14518042 436.303961 122.15069165 430.17843628 122.15544128 C418.16835938 122.16376384 406.15828873 122.16650978 394.14820971 122.16705366 C384.39047116 122.16751267 374.63273421 122.16956819 364.87499619 122.17275429 C362.06933971 122.17365179 359.26368324 122.1745416 356.45802677 122.17542917 C355.76059206 122.17565021 355.06315735 122.17587126 354.34458825 122.17609901 C334.71881625 122.18225585 315.09304481 122.1861993 295.4672718 122.18575573 C294.72687458 122.18574015 293.98647736 122.18572457 293.22364385 122.18570852 C289.47074272 122.18562541 285.71784158 122.18552637 281.96494044 122.18542381 C281.21956008 122.18540387 280.47417972 122.18538392 279.70621207 122.18536337 C278.19887039 122.18532294 276.69152871 122.18528114 275.18418703 122.18523798 C251.72776563 122.18462511 228.27135867 122.19213297 204.81494141 122.20581055 C178.48045632 122.2211599 152.14598073 122.22977746 125.81149089 122.22884732 C123.00520571 122.22877269 120.19892053 122.22872399 117.39263535 122.22869301 C116.35611652 122.22867553 116.35611652 122.22867553 115.29865793 122.22865769 C104.16201117 122.22862688 93.02537692 122.23502202 81.88873388 122.24362527 C70.70251204 122.25208829 59.51630837 122.25293025 48.3300835 122.24651595 C42.26590955 122.24323818 36.20178109 122.24323909 30.13761139 122.2518692 C24.59235323 122.25967995 19.04717706 122.25835885 13.50192104 122.24958507 C11.48980955 122.24803802 9.47769211 122.24991102 7.46558763 122.25544515 C4.7420541 122.26244316 2.01881315 122.25726079 -0.70471001 122.24888897 C-1.49580298 122.25385715 -2.28689595 122.25882533 -3.10196143 122.26394406 C-6.86015396 122.2393235 -9.8637165 122.21220564 -13 120 C-14.91841177 117.1386697 -15.25418578 114.82346524 -15.27415466 111.42129517 C-15.28412979 110.50732468 -15.29410492 109.59335419 -15.30438232 108.65168762 C-15.305047 107.6562645 -15.30571167 106.66084137 -15.30639648 105.63525391 C-15.31472 104.58116837 -15.32304352 103.52708282 -15.33161926 102.4410553 C-15.3557356 98.95285358 -15.3644932 95.46483877 -15.37109375 91.9765625 C-15.38005836 89.55284569 -15.38918017 87.12912947 -15.39845276 84.70541382 C-15.41494943 79.62293146 -15.42264421 74.54051503 -15.42553711 69.45800781 C-15.43092353 62.94542214 -15.46861235 56.43345595 -15.51428127 49.9210453 C-15.54402192 44.91445654 -15.55126002 39.90801754 -15.55226326 34.90134811 C-15.55647096 32.50036149 -15.56892712 30.09937463 -15.58978081 27.69847488 C-15.61663339 24.33969787 -15.61188702 20.98236467 -15.59936523 17.62353516 C-15.61419952 16.63216049 -15.62903381 15.64078583 -15.64431763 14.61936951 C-15.59653257 10.11862876 -15.4790988 6.98402636 -12.58753967 3.39852905 C-8.57201426 -0.32367643 -5.33826232 -0.54409212 0 0 Z " fill="#000000" transform="translate(15,384)"/>
</svg>
