<svg width="247" height="247" xmlns="http://www.w3.org/2000/svg" xmlns:xlink="http://www.w3.org/1999/xlink" xml:space="preserve" overflow="hidden"><g transform="translate(-41 -41)"><g><path d="M47.0001 199.25 74.2501 172 157 172 157 253.75 129.75 281 47.0001 281ZM47.0001 199.25 129.75 199.25 157 172M129.75 199.25 129.75 281" stroke="#000000" stroke-width="10.3125" stroke-linecap="butt" stroke-linejoin="miter" stroke-miterlimit="8" stroke-opacity="1" fill="none" fill-rule="evenodd"/><path d="M173 199.25 200.25 172 283 172 283 253.75 255.75 281 173 281ZM173 199.25 255.75 199.25 283 172M255.75 199.25 255.75 281" stroke="#000000" stroke-width="10.3125" stroke-linecap="butt" stroke-linejoin="miter" stroke-miterlimit="8" stroke-opacity="1" fill="none" fill-rule="evenodd"/><path d="M119 76.2502 146.25 49.0002 228 49.0002 228 130.75 200.75 158 119 158ZM119 76.2502 200.75 76.2502 228 49.0002M200.75 76.2502 200.75 158" stroke="#000000" stroke-width="10.3125" stroke-linecap="butt" stroke-linejoin="miter" stroke-miterlimit="8" stroke-opacity="1" fill="none" fill-rule="evenodd"/></g></g></svg>