<svg width="294" height="83" xmlns="http://www.w3.org/2000/svg" xmlns:xlink="http://www.w3.org/1999/xlink" xml:space="preserve" overflow="hidden"><g transform="translate(-13 -132)"><g><path d="M221 173C221 155.879 238.461 142 260 142 281.539 142 299 155.879 299 173 299 190.121 281.539 204 260 204 238.461 204 221 190.121 221 173Z" stroke="#000000" stroke-width="10.3125" stroke-linecap="butt" stroke-linejoin="miter" stroke-miterlimit="8" stroke-opacity="1" fill="none" fill-rule="evenodd"/><path d="M0 0 75.4814 0.000360892" stroke="#000000" stroke-width="10.3125" stroke-linecap="butt" stroke-linejoin="miter" stroke-miterlimit="8" stroke-opacity="1" fill="none" fill-rule="evenodd" transform="matrix(-1 0 0 1 256.482 142)"/><path d="M0 0 85.054 0.000360892" stroke="#000000" stroke-width="10.3125" stroke-linecap="butt" stroke-linejoin="miter" stroke-miterlimit="8" stroke-opacity="1" fill="none" fill-rule="evenodd" transform="matrix(-1 0 0 1 260.054 205)"/><path d="M0 0 138.995 0.000360892" stroke="#000000" stroke-width="10.3125" stroke-linecap="butt" stroke-linejoin="miter" stroke-miterlimit="8" stroke-opacity="1" fill="none" fill-rule="evenodd" transform="matrix(-1 0 0 1 175.995 205)"/><path d="M0 0 147.279 0.000360892" stroke="#000000" stroke-width="10.3125" stroke-linecap="butt" stroke-linejoin="miter" stroke-miterlimit="8" stroke-opacity="1" fill="none" fill-rule="evenodd" transform="matrix(-1 0 0 1 184.28 142)"/><path d="M39.3885 206.605C21.6868 192.777 21.888 162.94 39.8379 139.962" stroke="#000000" stroke-width="10.3125" stroke-linecap="butt" stroke-linejoin="miter" stroke-miterlimit="8" stroke-opacity="1" fill="none" fill-rule="evenodd"/></g></g></svg>