<svg width="42" height="42" viewBox="0 0 42 42" fill="none" xmlns="http://www.w3.org/2000/svg">
<path d="M41 21C41 32.0457 32.0457 41 21 41C9.9543 41 1 32.0457 1 21C1 9.9543 9.9543 1 21 1C32.0457 1 41 9.9543 41 21Z" stroke="#3E7EFF" stroke-width="1.5"/>
<path d="M37 21C37 29.8366 29.8366 37 21 37C12.1634 37 5 29.8366 5 21C5 12.1634 12.1634 5 21 5C29.8366 5 37 12.1634 37 21Z" stroke="#3E7EFF" stroke-width="1.5"/>
<path d="M33 21C33 27.6274 27.6274 33 21 33C14.3726 33 9 27.6274 9 21C9 14.3726 14.3726 9 21 9C27.6274 9 33 14.3726 33 21Z" stroke="#3E7EFF" stroke-width="1.5"/>
<path d="M29 21C29 25.4183 25.4183 29 21 29C16.5817 29 13 25.4183 13 21C13 16.5817 16.5817 13 21 13C25.4183 13 29 16.5817 29 21Z" stroke="#3E7EFF" stroke-width="1.5"/>
</svg>
