<svg width="265" height="311" xmlns="http://www.w3.org/2000/svg" xmlns:xlink="http://www.w3.org/1999/xlink" xml:space="preserve" overflow="hidden"><g transform="translate(-32 -9)"><g><path d="M38.9998 163C38.9998 151.402 48.4019 142 60 142 71.598 142 81.0001 151.402 81.0001 163 81.0001 174.598 71.598 184 60 184 48.4019 184 38.9998 174.598 38.9998 163Z" stroke="#156082" stroke-width="10.3125" stroke-linecap="butt" stroke-linejoin="miter" stroke-miterlimit="8" stroke-opacity="1" fill="none" fill-rule="evenodd"/><path d="M99 85.9999C99 74.402 108.402 65 120 65 131.598 65 141 74.402 141 85.9999 141 97.5979 131.598 107 120 107 108.402 107 99 97.5979 99 85.9999Z" stroke="#156082" stroke-width="10.3125" stroke-linecap="butt" stroke-linejoin="miter" stroke-miterlimit="8" stroke-opacity="1" fill="none" fill-rule="evenodd"/><path d="M77 253C77 241.402 86.6259 232 98.5 232 110.374 232 120 241.402 120 253 120 264.598 110.374 274 98.5 274 86.6259 274 77 264.598 77 253Z" stroke="#156082" stroke-width="10.3125" stroke-linecap="butt" stroke-linejoin="miter" stroke-miterlimit="8" stroke-opacity="1" fill="none" fill-rule="evenodd"/><path d="M137 176C137 164.402 146.402 155 158 155 169.598 155 179 164.402 179 176 179 187.598 169.598 197 158 197 146.402 197 137 187.598 137 176Z" stroke="#156082" stroke-width="10.3125" stroke-linecap="butt" stroke-linejoin="miter" stroke-miterlimit="8" stroke-opacity="1" fill="none" fill-rule="evenodd"/><path d="M49.9998 104.5C49.9998 98.7009 54.7009 93.9998 60.5 93.9998 66.2991 93.9998 71.0002 98.7009 71.0002 104.5 71.0002 110.299 66.2991 115 60.5 115 54.7009 115 49.9998 110.299 49.9998 104.5Z" stroke="#0F9ED5" stroke-width="10.3125" stroke-linecap="butt" stroke-linejoin="miter" stroke-miterlimit="8" stroke-opacity="1" fill="none" fill-rule="evenodd"/><path d="M99 148.5C99 142.701 103.701 138 109.5 138 115.299 138 120 142.701 120 148.5 120 154.299 115.299 159 109.5 159 103.701 159 99 154.299 99 148.5Z" stroke="#0F9ED5" stroke-width="10.3125" stroke-linecap="butt" stroke-linejoin="miter" stroke-miterlimit="8" stroke-opacity="1" fill="none" fill-rule="evenodd"/><path d="M71.0002 210C71.0002 203.925 75.7012 199 81.5002 199 87.2991 199 92.0001 203.925 92.0001 210 92.0001 216.075 87.2991 221 81.5002 221 75.7012 221 71.0002 216.075 71.0002 210Z" stroke="#0F9ED5" stroke-width="10.3125" stroke-linecap="butt" stroke-linejoin="miter" stroke-miterlimit="8" stroke-opacity="1" fill="none" fill-rule="evenodd"/><path d="M162 123C162 116.925 166.701 112 172.5 112 178.299 112 183 116.925 183 123 183 129.075 178.299 134 172.5 134 166.701 134 162 129.075 162 123Z" stroke="#0F9ED5" stroke-width="10.3125" stroke-linecap="butt" stroke-linejoin="miter" stroke-miterlimit="8" stroke-opacity="1" fill="none" fill-rule="evenodd"/><path d="M140 231.5C140 225.701 144.925 221 151 221 157.075 221 162 225.701 162 231.5 162 237.299 157.075 242 151 242 144.925 242 140 237.299 140 231.5Z" stroke="#0F9ED5" stroke-width="10.3125" stroke-linecap="butt" stroke-linejoin="miter" stroke-miterlimit="8" stroke-opacity="1" fill="none" fill-rule="evenodd"/><rect x="202" y="15.0001" width="26.9998" height="300" stroke="#000000" stroke-width="10.3125" stroke-linecap="butt" stroke-linejoin="miter" stroke-miterlimit="8" stroke-opacity="1" fill="none"/><path d="M254 176.5C254 170.701 258.701 166 264.5 166 270.299 166 275 170.701 275 176.5 275 182.299 270.299 187 264.5 187 258.701 187 254 182.299 254 176.5Z" stroke="#0F9ED5" stroke-width="10.3125" stroke-linecap="butt" stroke-linejoin="miter" stroke-miterlimit="8" stroke-opacity="1" fill="none" fill-rule="evenodd"/><path d="M269 227.5C269 221.701 273.925 217 280 217 286.075 217 291 221.701 291 227.5 291 233.299 286.075 238 280 238 273.925 238 269 233.299 269 227.5Z" stroke="#0F9ED5" stroke-width="10.3125" stroke-linecap="butt" stroke-linejoin="miter" stroke-miterlimit="8" stroke-opacity="1" fill="none" fill-rule="evenodd"/><path d="M270 114.5C270 108.701 274.701 104 280.5 104 286.299 104 291 108.701 291 114.5 291 120.299 286.299 125 280.5 125 274.701 125 270 120.299 270 114.5Z" stroke="#0F9ED5" stroke-width="10.3125" stroke-linecap="butt" stroke-linejoin="miter" stroke-miterlimit="8" stroke-opacity="1" fill="none" fill-rule="evenodd"/><path d="M251 60.9998C251 54.9247 255.701 49.9998 261.5 49.9998 267.299 49.9998 272 54.9247 272 60.9998 272 67.075 267.299 71.9998 261.5 71.9998 255.701 71.9998 251 67.075 251 60.9998Z" stroke="#0F9ED5" stroke-width="10.3125" stroke-linecap="butt" stroke-linejoin="miter" stroke-miterlimit="8" stroke-opacity="1" fill="none" fill-rule="evenodd"/><path d="M246 277.5C246 271.701 250.701 267 256.5 267 262.299 267 267 271.701 267 277.5 267 283.299 262.299 288 256.5 288 250.701 288 246 283.299 246 277.5Z" stroke="#0F9ED5" stroke-width="10.3125" stroke-linecap="butt" stroke-linejoin="miter" stroke-miterlimit="8" stroke-opacity="1" fill="none" fill-rule="evenodd"/></g></g></svg>