<svg width="24" height="24" viewBox="0 0 24 24" fill="none" xmlns="http://www.w3.org/2000/svg">
<path d="M5.15625 6.15735C5.61824 5.61755 6.14281 5.13462 6.7189 4.71875" stroke="#2D4778" stroke-linecap="round" stroke-linejoin="round"/>
<path d="M17.0021 19.4854C14.7588 20.9857 11.9606 21.3999 9.37891 20.6138" stroke="#2D4778" stroke-linecap="round" stroke-linejoin="round"/>
<path d="M3.51768 8.99902C3.17322 9.96224 2.99626 10.9773 2.99446 12.0003" stroke="#2D4778" stroke-linecap="round" stroke-linejoin="round"/>
<path d="M9.37891 3.38691C13.0198 2.26849 16.9703 3.56701 19.2376 6.62745C21.505 9.68788 21.5965 13.8453 19.4661 17.0026" stroke="#2D4778" stroke-linecap="round" stroke-linejoin="round"/>
<path d="M6.71982 19.2818C5.24615 18.2103 4.13119 16.718 3.52148 15.001" stroke="#2D4778" stroke-linecap="round" stroke-linejoin="round"/>
<path fill-rule="evenodd" clip-rule="evenodd" d="M11.5034 16.2894L8.50212 14.5743C8.19041 14.3962 7.99805 14.0647 7.99805 13.7057V10.2935C7.99805 9.93454 8.19041 9.60306 8.50212 9.42494L11.5034 7.70994C11.8109 7.53419 12.1885 7.53419 12.4961 7.70994L15.4973 9.42494C15.809 9.60306 16.0014 9.93454 16.0014 10.2935V13.7057C16.0014 14.0647 15.809 14.3962 15.4973 14.5743L12.4961 16.2894C12.1885 16.4651 11.8109 16.4651 11.5034 16.2894Z" stroke="#2D4778" stroke-linecap="round" stroke-linejoin="round"/>
<path d="M8.15625 9.80371L11.9999 12" stroke="#2D4778" stroke-linecap="round" stroke-linejoin="round"/>
<path d="M15.866 9.79102L12 12.0001" stroke="#2D4778" stroke-linecap="round" stroke-linejoin="round"/>
<path d="M11.9983 12V16.42" stroke="#2D4778" stroke-linecap="round" stroke-linejoin="round"/>
</svg>
