<svg width="293" height="247" xmlns="http://www.w3.org/2000/svg" xmlns:xlink="http://www.w3.org/1999/xlink" xml:space="preserve" overflow="hidden"><g transform="translate(-18 -41)"><g><path d="M257.667 282C232.077 282 211.333 229.617 211.333 165 211.333 100.383 232.077 48.0001 257.667 48.0001" stroke="#042433" stroke-width="10.3125" stroke-linecap="butt" stroke-linejoin="miter" stroke-miterlimit="8" stroke-opacity="1" fill="none" fill-rule="evenodd"/><path d="M72.3334 48.0001 257.667 48.0001C283.256 48.0001 304 100.383 304 165 304 229.617 283.256 282 257.667 282L72.3334 282C46.7443 282 26.0001 229.617 26.0001 165 26.0001 100.383 46.7443 48.0001 72.3334 48.0001Z" stroke="#042433" stroke-width="10.3125" stroke-linecap="butt" stroke-linejoin="miter" stroke-miterlimit="8" stroke-opacity="1" fill="none" fill-rule="evenodd"/><path d="M66.4509 253.854C55.2308 241.511 56.5319 222.054 69.3568 210.396 81.876 199.016 90.2145 183.037 94.3725 162.459 95.7678 183.195 101.942 199.588 112.894 211.636 124.114 223.979 122.813 243.436 109.988 255.094 97.1633 266.752 77.671 266.197 66.4509 253.854Z" stroke="#042433" stroke-width="10.3125" stroke-linecap="butt" stroke-linejoin="miter" stroke-miterlimit="8" stroke-opacity="1" fill="none" fill-rule="evenodd"/><path d="M124.616 70.9572C135.536 83.567 133.766 102.987 120.664 114.333 107.875 125.408 99.1535 141.181 94.501 161.653 93.6056 140.889 87.8283 124.353 77.1693 112.044 66.2498 99.4339 68.0192 80.0141 81.1213 68.6684 94.2233 57.3226 113.697 58.3474 124.616 70.9572Z" stroke="#042433" stroke-width="10.3125" stroke-linecap="butt" stroke-linejoin="miter" stroke-miterlimit="8" stroke-opacity="1" fill="none" fill-rule="evenodd"/><path d="M147.139 256.588C135.995 244.176 137.416 224.727 150.313 213.148 162.902 201.846 171.338 185.918 175.623 165.366 176.891 186.111 182.963 202.541 193.841 214.657 204.985 227.069 203.564 246.518 190.668 258.097 177.771 269.675 158.282 269 147.139 256.588Z" stroke="#042433" stroke-width="10.3125" stroke-linecap="butt" stroke-linejoin="miter" stroke-miterlimit="8" stroke-opacity="1" fill="none" fill-rule="evenodd"/><path d="M205.559 73.9809C216.401 86.6578 214.512 106.066 201.34 117.331 188.483 128.327 179.664 144.047 174.886 164.49 174.118 143.721 168.443 127.149 157.86 114.774 147.019 102.097 148.908 82.6887 162.08 71.4239 175.251 60.1592 194.718 61.304 205.559 73.9809Z" stroke="#042433" stroke-width="10.3125" stroke-linecap="butt" stroke-linejoin="miter" stroke-miterlimit="8" stroke-opacity="1" fill="none" fill-rule="evenodd"/><path d="M0 0 235.62 0.000360892" stroke="#000000" stroke-width="10.3125" stroke-linecap="butt" stroke-linejoin="miter" stroke-miterlimit="8" stroke-opacity="1" fill="none" fill-rule="evenodd" transform="matrix(1 0 0 -1 26.0001 164)"/></g></g></svg>