<?xml version="1.0" encoding="UTF-8"?>
<svg version="1.1" xmlns="http://www.w3.org/2000/svg" width="512" height="512">
<path d="M0 0 C4.12390399 1.8931784 6.93280604 4.67825368 10.078125 7.8828125 C10.64956238 8.45707977 11.22099976 9.03134705 11.80975342 9.62301636 C13.62792945 11.4523581 15.43901492 13.28854193 17.25 15.125 C18.48391329 16.36894774 19.71828322 17.6124427 20.953125 18.85546875 C23.97406743 21.89842367 26.98867092 24.94753254 30 28 C28.55258883 31.31851886 26.74697666 33.50034862 24.19088745 36.04962158 C23.00036774 37.24426529 23.00036774 37.24426529 21.78579712 38.46304321 C20.47812881 39.75992569 20.47812881 39.75992569 19.14404297 41.08300781 C18.22691528 42.00042755 17.3097876 42.91784729 16.36486816 43.86306763 C13.8529964 46.37551297 11.33500797 48.88174606 8.81587744 51.38691044 C6.1830938 54.00718777 3.55597647 56.63313362 0.92825317 59.25848389 C-4.04716681 64.22768882 -9.02766287 69.19177369 -14.01000202 74.1540401 C-19.68256673 79.80424663 -25.34945043 85.46013628 -31.01586366 91.11651087 C-42.67093207 102.7506767 -54.33311532 114.37768345 -66 126 C-65.43991745 126.00097681 -64.8798349 126.00195362 -64.30278015 126.00296003 C-31.00798089 126.06140334 2.28674458 126.13532816 35.5814628 126.22898628 C39.59125484 126.24025263 43.60104723 126.25139137 47.61083984 126.26245117 C48.40901977 126.26465486 49.20719969 126.26685854 50.02956688 126.269129 C62.90436377 126.30437151 75.77916061 126.32930895 88.65398765 126.35034702 C101.89336702 126.37221361 115.13268454 126.40536545 128.37201118 126.44870156 C136.52224576 126.47503271 144.67240347 126.49286395 152.82267839 126.49934604 C158.43371519 126.50465735 164.04465579 126.52106259 169.65564078 126.54566566 C172.87884387 126.5594875 176.10184576 126.56726327 179.32508278 126.56500816 C222.75476514 126.54424056 264.29649864 135.39663307 299 163 C299.54027832 163.42748535 300.08055664 163.8549707 300.63720703 164.29541016 C337.30283984 193.61705251 361.09123082 235.06398283 366.7895813 281.85890198 C367.12855095 285.30805957 367.18158663 288.74327162 367.203125 292.20703125 C367.21018463 292.9657402 367.21724426 293.72444916 367.22451782 294.50614929 C367.4521845 326.15404168 367.4521845 326.15404168 364 340 C363.80132324 340.82242187 363.60264648 341.64484375 363.39794922 342.4921875 C355.45099179 374.58956161 339.92375494 402.26238393 317 426 C316.19046875 426.86109375 315.3809375 427.7221875 314.546875 428.609375 C292.62755992 451.3771797 262.45008691 466.7086827 231.875 473.8125 C231.04210449 474.00739014 230.20920898 474.20228027 229.35107422 474.40307617 C212.71533197 478.02210773 196.24509505 478.28235273 179.30444336 478.22705078 C176.85861719 478.22648553 174.41279069 478.22680545 171.96696472 478.22793579 C166.73595685 478.22838832 161.50499425 478.22278908 156.27400017 478.21146011 C148.71119509 478.19509186 141.14841404 478.18998563 133.58559317 478.18748413 C121.31054767 478.18312463 109.03552901 478.16986329 96.76049805 478.15087891 C84.8480645 478.13247465 72.93563828 478.1183405 61.02319336 478.10986328 C60.28688476 478.10933783 59.55057615 478.10881239 58.79195517 478.10827102 C55.09750633 478.10566063 51.40305743 478.10313329 47.70860851 478.10064721 C17.13905256 478.07996913 -13.43046852 478.04423484 -44 478 C-44 464.47 -44 450.94 -44 437 C-40.94775681 436.99413376 -37.89551361 436.98826752 -34.7507782 436.98222351 C-6.69087401 436.92692087 21.36895385 436.85688823 49.4287795 436.77101372 C53.11454733 436.75974702 56.80031553 436.74860833 60.48608398 436.73754883 C61.58663091 436.7342433 61.58663091 436.7342433 62.70941111 436.730871 C74.55294068 436.69560311 86.39647021 436.67067988 98.24003265 436.64965298 C110.41378966 436.62780682 122.58747917 436.59467377 134.76117867 436.55129844 C141.5900394 436.52728452 148.41883344 436.50829583 155.24773598 436.50238609 C161.68850992 436.49629831 168.1290941 436.47616612 174.56979752 436.44572449 C176.92097463 436.43700312 179.2721766 436.43320928 181.62336922 436.43499184 C214.84336753 436.45221008 246.27693959 429.97164058 273 409 C273.5352832 408.58137695 274.07056641 408.16275391 274.62207031 407.73144531 C302.1781147 385.95458305 320.15695279 354.51264989 324.76171875 319.57421875 C328.62058244 285.91363032 320.90494041 250.97819804 300.1875 223.74609375 C299.465625 222.83988281 298.74375 221.93367187 298 221 C297.58878906 220.48195801 297.17757813 219.96391602 296.75390625 219.43017578 C278.70668421 196.8778423 254.3796188 180.70699619 226.4375 173.1875 C225.36012573 172.89516479 225.36012573 172.89516479 224.26098633 172.59692383 C208.21775394 168.56166229 192.21957582 168.72337246 175.78735352 168.77294922 C173.1546284 168.77351417 170.52191443 168.7732829 167.88919067 168.77206421 C162.24835354 168.77102182 156.60756313 168.77723024 150.96673775 168.78853989 C142.81132814 168.80488043 134.65594084 168.81001158 126.50051665 168.81251587 C113.26489873 168.81687964 100.02930563 168.83015276 86.79370117 168.84912109 C73.94604617 168.86751416 61.09839795 168.88165384 48.25073242 168.89013672 C47.45714545 168.89066217 46.66355849 168.89118761 45.84592343 168.89172898 C41.86423596 168.89433929 37.88254845 168.89686665 33.90086091 168.89935279 C0.93388921 168.9200442 -32.03305206 168.95523356 -65 169 C-64.38914047 169.60863892 -63.77828094 170.21727783 -63.14891052 170.84436035 C-57.36510093 176.6080517 -51.58376082 182.37420656 -45.80511379 188.14307404 C-42.83487173 191.10811917 -39.86371591 194.07223594 -36.89038086 197.03417969 C-34.0157683 199.89784918 -31.1436751 202.76402408 -28.27324104 205.63188171 C-27.18302032 206.72026862 -26.09192658 207.80778183 -24.99990654 208.8943634 C-19.63096586 214.23765028 -14.34441451 219.59741798 -9.41604424 225.35713196 C-7.60283416 227.46078438 -5.68374824 229.43639906 -3.71704102 231.39648438 C-2.95678116 232.1566687 -2.1965213 232.91685303 -1.41322327 233.70007324 C-0.61814865 234.48998657 0.17692596 235.2798999 0.99609375 236.09375 C1.82963882 236.92588013 2.6631839 237.75801025 3.52198792 238.61535645 C6.15813262 241.24594935 8.79775105 243.87302441 11.4375 246.5 C13.23655979 248.29403855 15.0353902 250.08830715 16.83398438 251.8828125 C21.22000812 256.25787125 25.60888142 260.63005512 30 265 C26.35767102 269.34086529 22.62361806 273.49769734 18.6015625 277.49609375 C18.1217392 277.97450211 17.64191589 278.45291046 17.14755249 278.94581604 C15.64240542 280.44544879 14.13378786 281.94153128 12.625 283.4375 C11.59221405 284.46525983 10.55966009 285.49325285 9.52734375 286.52148438 C7.02089713 289.01701598 4.5113292 291.50938082 2 294 C-2.10071655 292.37162928 -4.86201065 289.42566904 -7.9165802 286.35757446 C-8.50465145 285.77473989 -9.09272271 285.19190531 -9.6986143 284.59140909 C-11.66951193 282.63552359 -13.63318506 280.67254375 -15.59692383 278.70947266 C-17.00759294 277.30642391 -18.41866446 275.90377966 -19.83010864 274.50151062 C-23.66320433 270.69037186 -27.48969555 266.87266862 -31.31436753 263.05307817 C-33.70205894 260.66902723 -36.09104398 258.28628047 -38.48047447 255.90397263 C-46.81001058 247.59892977 -55.13381147 239.28818293 -63.45288086 230.97265625 C-71.21870982 223.21046818 -78.99758762 215.46152593 -86.78248006 207.71846163 C-93.45884739 201.07671771 -100.12562974 194.42545438 -106.78505725 187.7667259 C-110.76580204 183.78677627 -114.75047362 179.81095424 -118.74497414 175.84480667 C-122.49796416 172.11786272 -126.23895399 168.37928794 -129.97087479 164.63125038 C-131.34565655 163.25464371 -132.72475807 161.8823362 -134.10835457 160.51458931 C-135.99006882 158.65313123 -137.85588212 156.77708986 -139.71833801 154.89639282 C-140.27492798 154.35300282 -140.83151795 153.80961282 -141.40497428 153.24975646 C-142.90093708 151.71988869 -142.90093708 151.71988869 -145 149 C-144.88588201 145.23550892 -142.84387103 143.48333622 -140.23388672 140.90917969 C-139.43570526 140.11445251 -138.6375238 139.31972534 -137.81515503 138.50091553 C-136.5105986 137.22429047 -136.5105986 137.22429047 -135.1796875 135.921875 C-134.28766632 135.03647034 -133.39564514 134.15106567 -132.47659302 133.23883057 C-130.10067864 130.88238516 -127.71878587 128.53235267 -125.33331299 126.18560791 C-121.9944878 122.89876627 -118.66537722 119.60211568 -115.337677 116.30401611 C-113.56786756 114.55102229 -111.79497476 112.80113408 -110.01852417 111.05487061 C-109.20142975 110.24753479 -108.38433533 109.44019897 -107.54248047 108.60839844 C-106.4777803 107.56060211 -106.4777803 107.56060211 -105.39157104 106.49163818 C-103.45841092 104.47759156 -101.6351928 102.434311 -99.81654358 100.31951904 C-95.55846042 95.42037074 -90.9903996 90.85792924 -86.39282227 86.27929688 C-85.44577386 85.33253121 -84.49894692 84.38554397 -83.55232239 83.43835449 C-81.00546447 80.891212 -78.45555559 78.34714447 -75.90504956 75.80365562 C-73.23135565 73.13625226 -70.56053104 70.46597892 -67.88938904 67.79602051 C-62.84131254 62.75104062 -57.79069448 57.70861324 -52.73913759 52.66711855 C-46.98376948 46.92296368 -41.231272 41.17593763 -35.47900307 35.42867947 C-23.65583952 23.61594245 -11.82911132 11.80678107 0 0 Z " fill="#000000" transform="translate(145,17)"/>
</svg>
