<svg width="239" height="289" xmlns="http://www.w3.org/2000/svg" xmlns:xlink="http://www.w3.org/1999/xlink" xml:space="preserve" overflow="hidden"><g transform="translate(-45 -27)"><g><path d="M279 164.167C279 180.275 227.96 193.334 165 193.334 102.039 193.334 50.9997 180.275 50.9997 164.167" stroke="#042433" stroke-width="10.3125" stroke-linecap="butt" stroke-linejoin="miter" stroke-miterlimit="8" stroke-opacity="1" fill="none" fill-rule="evenodd"/><path d="M50.9997 280.834 50.9997 164.167C50.9997 148.059 102.039 135 165 135 227.96 135 279 148.059 279 164.167L279 280.834C279 296.942 227.96 310 165 310 102.039 310 50.9997 296.942 50.9997 280.834Z" stroke="#042433" stroke-width="10.3125" stroke-linecap="butt" stroke-linejoin="miter" stroke-miterlimit="8" stroke-opacity="1" fill="none" fill-rule="evenodd"/><rect x="50.9999" y="36.0001" width="228" height="28.9999" stroke="#000000" stroke-width="10.3125" stroke-linecap="butt" stroke-linejoin="miter" stroke-miterlimit="8" stroke-opacity="1" fill="none"/><path d="M0 0 40.2474 53.3807" stroke="#A02B93" stroke-width="10.3125" stroke-linecap="butt" stroke-linejoin="miter" stroke-miterlimit="8" stroke-opacity="1" fill="none" fill-rule="evenodd" transform="matrix(-1 0 0 1 105.247 76)"/><path d="M0 0 32.8333 52.957" stroke="#A02B93" stroke-width="10.3125" stroke-linecap="butt" stroke-linejoin="miter" stroke-miterlimit="8" stroke-opacity="1" fill="none" fill-rule="evenodd" transform="matrix(-1 0 0 1 126.833 74.9999)"/><path d="M0 0 25.4195 52.957" stroke="#A02B93" stroke-width="10.3125" stroke-linecap="butt" stroke-linejoin="miter" stroke-miterlimit="8" stroke-opacity="1" fill="none" fill-rule="evenodd" transform="matrix(-1 0 0 1 150.42 74.9999)"/><path d="M175 74.9999 200.801 128.381" stroke="#A02B93" stroke-width="10.3125" stroke-linecap="butt" stroke-linejoin="miter" stroke-miterlimit="8" stroke-opacity="1" fill="none" fill-rule="evenodd"/><path d="M196 74.9999 228.918 128.381" stroke="#A02B93" stroke-width="10.3125" stroke-linecap="butt" stroke-linejoin="miter" stroke-miterlimit="8" stroke-opacity="1" fill="none" fill-rule="evenodd"/><path d="M227 76 267.035 129.381" stroke="#A02B93" stroke-width="10.3125" stroke-linecap="butt" stroke-linejoin="miter" stroke-miterlimit="8" stroke-opacity="1" fill="none" fill-rule="evenodd"/></g></g></svg>