<svg width="42" height="42" viewBox="0 0 42 42" fill="none" xmlns="http://www.w3.org/2000/svg">
<path d="M1 8.45C1 4.33548 4.33548 1 8.45 1H33.55C37.6645 1 41 4.33548 41 8.45V33.55C41 37.6645 37.6645 41 33.55 41H8.45C4.33548 41 1 37.6645 1 33.55V8.45Z" stroke="#3E7EFF" stroke-width="1.5" stroke-linecap="round" stroke-linejoin="round"/>
<path d="M16.5 31C16.5 32.1046 15.6046 33 14.5 33C13.3954 33 12.5 32.1046 12.5 31C12.5 29.8954 13.3954 29 14.5 29C15.6046 29 16.5 29.8954 16.5 31Z" stroke="#3E7EFF" stroke-width="1.5" stroke-linecap="round" stroke-linejoin="round"/>
<path d="M29 23C29 24.6569 27.6569 26 26 26C24.3431 26 23 24.6569 23 23C23 21.3431 24.3431 20 26 20C27.6569 20 29 21.3431 29 23Z" stroke="#3E7EFF" stroke-width="1.5" stroke-linecap="round" stroke-linejoin="round"/>
<path d="M32 35.5C32 36.3284 31.3284 37 30.5 37C29.6716 37 29 36.3284 29 35.5C29 34.6716 29.6716 34 30.5 34C31.3284 34 32 34.6716 32 35.5Z" stroke="#3E7EFF" stroke-width="1.5" stroke-linecap="round" stroke-linejoin="round"/>
<path d="M35.5 10.5C35.5 12.7091 33.7091 14.5 31.5 14.5C29.2909 14.5 27.5 12.7091 27.5 10.5C27.5 8.29086 29.2909 6.5 31.5 6.5C33.7091 6.5 35.5 8.29086 35.5 10.5Z" stroke="#3E7EFF" stroke-width="1.5" stroke-linecap="round" stroke-linejoin="round"/>
<path d="M11.5 17C11.5 18.6569 10.1569 20 8.5 20C6.84315 20 5.5 18.6569 5.5 17C5.5 15.3431 6.84315 14 8.5 14C10.1569 14 11.5 15.3431 11.5 17Z" stroke="#3E7EFF" stroke-width="1.5" stroke-linecap="round" stroke-linejoin="round"/>
</svg>
