<svg width="42" height="42" viewBox="0 0 42 42" fill="none" xmlns="http://www.w3.org/2000/svg">
<path d="M17.8113 21.6889C17.9944 22.8472 18.8381 23.7859 19.9444 24.1069M17.8113 21.6889C17.7869 21.5345 17.7742 21.3763 17.7742 21.2151C17.7742 19.5523 19.1222 18.2043 20.785 18.2043C22.4478 18.2043 23.7957 19.5523 23.7957 21.2151C23.7957 22.8778 22.4478 24.2258 20.785 24.2258C20.4932 24.2258 20.2112 24.1843 19.9444 24.1069M17.8113 21.6889L6.46571 34.7389M19.9444 24.1069L7.0452 35.327M7.0452 35.327L6.46571 34.7389M7.0452 35.327C10.6487 38.8375 15.5718 41 21 41C32.0457 41 41 32.0457 41 21C41 9.95431 32.0457 1 21 1C9.95431 1 1 9.95431 1 21C1 26.3205 3.07757 31.1558 6.46571 34.7389M7.0452 35.327C6.84804 35.135 6.65483 34.9389 6.46571 34.7389" stroke="#3E7EFF" stroke-width="1.5"/>
</svg>
