<svg width="42" height="40" viewBox="0 0 42 40" fill="none" xmlns="http://www.w3.org/2000/svg">
<path d="M20.0438 35.7769V15.4662C20.0438 14.3616 19.1484 13.4662 18.0438 13.4662H11.757M20.0438 35.7769H3C1.89543 35.7769 1 34.8815 1 33.7769V15.4662C1 14.3616 1.89543 13.4662 3 13.4662H9.20717M20.0438 35.7769H39C40.1046 35.7769 41 34.8815 41 33.7769V23.4343C41 22.3297 40.1046 21.4343 39 21.4343H31.757M20.0438 35.7769V21.4343H29.2072M27.2948 30.943C27.534 30.5645 27.8197 30.2232 28.1424 29.9252M9.20717 13.4662V8.22314C9.20717 6.014 10.998 4.22314 13.2072 4.22314H27.7631C29.9729 4.22314 31.7641 6.01513 31.7631 8.225L31.757 21.4343M9.20717 13.4662H11.757M11.757 13.4662V8.77295C11.757 7.66838 12.6524 6.77295 13.757 6.77295H27.2072C28.3117 6.77295 29.2072 7.66838 29.2072 8.77295V21.4343M29.2072 21.4343H31.757M11.3295 29.0005L13 24.9953C11.4379 24.9953 10.5621 24.9953 9 24.9953L10.6705 21.0005M30.4416 26.3748C29.0495 26.3972 27.9326 27.5321 27.9326 28.9245C27.9326 30.3168 29.0495 31.4518 30.4416 31.4741C32.519 31.4741 33.0284 28.9235 34.2189 28.2457C33.3318 27.0536 31.9276 26.3581 30.4416 26.3748Z" stroke="#3D9970" stroke-width="1.5" stroke-linecap="round" stroke-linejoin="round"/>
</svg>
