<svg width="24" height="24" viewBox="0 0 24 24" fill="none" xmlns="http://www.w3.org/2000/svg">
<path d="M12.0002 8.99846V7.99805" stroke="#0F2060" stroke-linecap="round" stroke-linejoin="round"/>
<path d="M12.0002 15V16.0004" stroke="#0F2060" stroke-linecap="round" stroke-linejoin="round"/>
<path d="M10.2653 14.2851C10.5216 14.7259 10.9914 14.9988 11.5013 15.0032H12.5977C13.3069 15.0026 13.9045 14.4736 13.9912 13.7697C14.0778 13.0658 13.6263 12.4077 12.9384 12.2352L11.0634 11.7641C10.3755 11.5916 9.92398 10.9334 10.0106 10.2295C10.0973 9.52565 10.6949 8.99667 11.4041 8.99609H12.5005C13.0094 8.99962 13.4787 9.27121 13.7353 9.71067" stroke="#0F2060" stroke-linecap="round" stroke-linejoin="round"/>
<path fill-rule="evenodd" clip-rule="evenodd" d="M17.0058 21.0075H7.00167C4.79175 21.0075 3 19.2158 3 17.0058V7.00167C3 4.79175 4.79175 3 7.00167 3H17.0058C19.2158 3 21.0075 4.79175 21.0075 7.00167V17.0058C21.0075 19.2158 19.2158 21.0075 17.0058 21.0075Z" stroke="#0F2060" stroke-linecap="round" stroke-linejoin="round"/>
</svg>
