<svg width="40" height="42" viewBox="0 0 40 42" fill="none" xmlns="http://www.w3.org/2000/svg">
<path d="M15.5123 6.75399C15.8559 6.43759 16.2505 6.00853 16.7003 6.1342C16.8591 6.17855 16.9598 6.30651 16.9406 6.53638C16.8568 7.54204 16.791 8.48154 17.4712 9.0244C17.784 9.33727 18.1649 9.12087 17.9895 8.80801C17.8384 8.42713 17.7437 7.94732 17.6344 6.27793C17.6344 3.42134 18.0017 1.16326 21.688 1C22.0281 0.999973 22.1777 1.31286 22.0281 1.53054C21.2894 2.60513 21.9737 4.53673 22.9259 5.09444C25.8233 6.79149 27.3196 11.5286 22.9259 14.1675C17.852 17.215 12.2885 10.4267 15.5123 6.75399V6.75399Z" stroke="#3D9970" stroke-width="1.5" stroke-linecap="round"/>
<path d="M13.3076 16.5395C13.3076 14.5135 26.6929 14.5135 26.6929 16.5395V39.1954C26.6929 41.6015 13.3076 41.6015 13.3076 39.1954V16.5395Z" stroke="#3D9970" stroke-width="1.5" stroke-linecap="round"/>
</svg>
