<svg width="32" height="32" viewBox="0 0 32 32" fill="none" xmlns="http://www.w3.org/2000/svg">
<path d="M10.666 28.0007H21.3327" stroke="white" stroke-linecap="round" stroke-linejoin="round"/>
<path d="M28 18.6667V19.3333C28 21.5425 26.2091 23.3333 24 23.3333H8C5.79086 23.3333 4 21.5425 4 19.3333V8C4 5.79086 5.79086 4 8 4H12" stroke="white" stroke-linecap="round" stroke-linejoin="round"/>
<path d="M19 23.333L19.3333 28.0007" stroke="white" stroke-linecap="round" stroke-linejoin="round"/>
<path d="M12.9993 23.333L12.666 28.0007" stroke="white" stroke-linecap="round" stroke-linejoin="round"/>
<path d="M29.3333 12V10.6667C29.3333 9.19391 28.1394 8 26.6667 8H18.6667C17.1939 8 16 9.19391 16 10.6667V12" stroke="white" stroke-linecap="round" stroke-linejoin="round"/>
<rect x="29.334" y="14.667" width="13.3333" height="12" rx="2" transform="rotate(-180 29.334 14.667)" stroke="white" stroke-linecap="round" stroke-linejoin="round"/>
<path d="M25.3393 11.3405L25.3327 11.3472L25.326 11.3405L25.3327 11.3338L25.3393 11.3405" stroke="white" stroke-linecap="round" stroke-linejoin="round"/>
</svg>
