<svg width="24" height="24" viewBox="0 0 24 24" fill="none" xmlns="http://www.w3.org/2000/svg">
<path d="M3 8H21" stroke="#2D4778" stroke-linecap="round" stroke-linejoin="round"/>
<path d="M7.5 16.9995V15.5195" stroke="#2D4778" stroke-linecap="round" stroke-linejoin="round"/>
<path d="M10.5 17V12.25" stroke="#2D4778" stroke-linecap="round" stroke-linejoin="round"/>
<path d="M13.5 16.9997V14.9297" stroke="#2D4778" stroke-linecap="round" stroke-linejoin="round"/>
<path d="M16.5 16.9998V12.7998" stroke="#2D4778" stroke-linecap="round" stroke-linejoin="round"/>
<path d="M10.8662 5.495C10.8632 5.495 10.8612 5.497 10.8612 5.5C10.8612 5.503 10.8632 5.505 10.8662 5.505C10.8692 5.505 10.8712 5.503 10.8712 5.5C10.8712 5.497 10.8692 5.495 10.8662 5.495" stroke="#2D4778" stroke-linecap="round" stroke-linejoin="round"/>
<path d="M8.32715 5.495C8.32415 5.495 8.32215 5.497 8.32215 5.5C8.32215 5.503 8.32415 5.505 8.32715 5.505C8.33015 5.505 8.33215 5.503 8.33215 5.5C8.33215 5.497 8.33015 5.495 8.32715 5.495" stroke="#2D4778" stroke-linecap="round" stroke-linejoin="round"/>
<path d="M5.77881 5.49012C5.77581 5.49012 5.77381 5.49212 5.77381 5.49512C5.77381 5.49812 5.77581 5.50012 5.77881 5.50012C5.78181 5.50012 5.78381 5.49812 5.78381 5.49512C5.78381 5.49212 5.78181 5.49012 5.77881 5.49012" stroke="#2D4778" stroke-linecap="round" stroke-linejoin="round"/>
<path fill-rule="evenodd" clip-rule="evenodd" d="M19 21H5C3.895 21 3 20.105 3 19V5C3 3.895 3.895 3 5 3H19C20.105 3 21 3.895 21 5V19C21 20.105 20.105 21 19 21Z" stroke="#2D4778" stroke-linecap="round" stroke-linejoin="round"/>
</svg>
