<svg width="40" height="42" viewBox="0 0 40 42" fill="none" xmlns="http://www.w3.org/2000/svg">
<path d="M10.4037 30.9167L5.44814 39.5C5.06324 40.1667 5.54437 41 6.31417 41H28.422C29.1918 41 29.6729 40.1667 29.288 39.5L24.3832 31.0047M10.4037 30.9167L10.4671 30.9483M10.4037 30.9167C12.533 31.986 14.9374 32.588 17.4825 32.588C19.9569 32.588 22.2983 32.019 24.3832 31.0047M10.4037 30.9167C5.23532 28.321 1.68848 22.9717 1.68848 16.794C1.68848 8.07121 8.75969 1 17.4825 1C23.1856 1 28.1827 4.0228 30.959 8.55365M24.3832 31.0047C27.1037 29.6811 29.3873 27.5994 30.959 25.0343M30.959 8.55365H37.3122C37.8645 8.55365 38.3122 9.00136 38.3122 9.55365V24.0343C38.3122 24.5866 37.8645 25.0343 37.3122 25.0343H30.959M30.959 8.55365C32.429 10.9526 33.2765 13.7743 33.2765 16.794C33.2765 19.8136 32.429 22.6354 30.959 25.0343" stroke="black" stroke-width="1.5"/>
</svg>
