<svg width="20" height="20" viewBox="0 0 20 20" fill="none" xmlns="http://www.w3.org/2000/svg">
<path fill-rule="evenodd" clip-rule="evenodd" d="M3.23224 4.26777L4.26777 3.23223C4.73662 2.76339 5.3725 2.5 6.03554 2.5H15C16.3807 2.5 17.5 3.61929 17.5 5V15C17.5 16.3807 16.3807 17.5 15 17.5H5C3.61929 17.5 2.5 16.3807 2.5 15V6.03553C2.5 5.37249 2.7634 4.73661 3.23224 4.26777Z" stroke="white" stroke-linecap="round" stroke-linejoin="round"/>
<path d="M13.3327 2.5V5.83333C13.3327 6.29357 12.9596 6.66667 12.4993 6.66667H7.49935C7.03911 6.66667 6.66602 6.29357 6.66602 5.83333V2.5" stroke="white" stroke-linecap="round" stroke-linejoin="round"/>
<circle cx="10" cy="12.083" r="2.5" stroke="white" stroke-linecap="round" stroke-linejoin="round"/>
</svg>
