<svg width="40" height="42" viewBox="0 0 40 42" fill="none" xmlns="http://www.w3.org/2000/svg">
<path d="M10 21V11M10 21V31M10 21H12.5M10 11V5C10 2.79086 11.7909 1 14 1H26C28.2091 1 30 2.79086 30 5V11M10 11H30M10 31V37C10 39.2091 11.7909 41 14 41H26C28.2091 41 30 39.2091 30 37V31M10 31H30M30 31V21M30 21V11M30 21H27.5M22.8621 18.069C22.8621 15.3103 17.3448 15.3103 17.3448 18.069C17.3448 21.1724 23 19.7931 23 22.8966C23 25.4027 20.0825 25.9597 18.3793 24.9579C17.6381 24.5219 17 23.5862 17 23.2414" stroke="#3E7EFF" stroke-width="1.5" stroke-linecap="round"/>
</svg>
