<svg width="24" height="24" viewBox="0 0 24 24" fill="none" xmlns="http://www.w3.org/2000/svg">
<path d="M2 8.10059C2 11.4706 4.732 14.2016 8.101 14.2016C8.825 14.2016 9.517 14.0686 10.161 13.8376" stroke="#3C5FAC" stroke-linecap="round" stroke-linejoin="round"/>
<path d="M8.101 2C4.732 2 2 4.732 2 8.101" stroke="#3C5FAC" stroke-linecap="round" stroke-linejoin="round"/>
<path d="M13.8381 10.162C14.0701 9.517 14.2021 8.826 14.2021 8.102C14.2031 4.732 11.4711 2 8.10107 2" stroke="#3C5FAC" stroke-linecap="round" stroke-linejoin="round"/>
<path d="M13.9702 14.245V14.796" stroke="#3C5FAC" stroke-linecap="round" stroke-linejoin="round"/>
<path d="M17.8281 14.245V14.796" stroke="#3C5FAC" stroke-linecap="round" stroke-linejoin="round"/>
<path d="M17.225 17.7851C16.898 17.9501 16.452 18.1031 15.898 18.1031C15.316 18.1031 14.849 17.9341 14.519 17.7601" stroke="#3C5FAC" stroke-linecap="round" stroke-linejoin="round"/>
<path d="M6.17188 6.44813V6.99913" stroke="#3C5FAC" stroke-linecap="round" stroke-linejoin="round"/>
<path d="M10.0298 6.44813V6.99913" stroke="#3C5FAC" stroke-linecap="round" stroke-linejoin="round"/>
<path d="M6.72217 10.2813C7.04917 10.1163 7.49517 9.96327 8.04917 9.96327C8.63117 9.96327 9.09817 10.1323 9.42817 10.3063" stroke="#3C5FAC" stroke-linecap="round" stroke-linejoin="round"/>
<path fill-rule="evenodd" clip-rule="evenodd" d="M9.79688 15.8989C9.79688 19.2689 12.5279 21.9999 15.8979 21.9999C19.2679 21.9999 21.9999 19.2689 21.9999 15.8989C21.9999 12.5289 19.2689 9.79785 15.8989 9.79785C12.5289 9.79785 9.79688 12.5289 9.79688 15.8989Z" stroke="#3C5FAC" stroke-linecap="round" stroke-linejoin="round"/>
</svg>
